<svg width="237" height="236" viewBox="0 0 237 236" fill="none" xmlns="http://www.w3.org/2000/svg">
<path d="M163.238 38.9882C163.233 38.4672 163.387 37.957 163.681 37.5265C163.974 37.096 164.393 36.766 164.88 36.581C165.741 36.3025 166.646 36.1826 167.55 36.227C167.524 36.5929 167.546 36.9606 167.615 37.3209C167.646 37.4253 167.709 37.5171 167.796 37.5824C167.883 37.6476 167.989 37.6829 168.098 37.6829C168.207 37.6829 168.312 37.6476 168.399 37.5824C168.486 37.5171 168.55 37.4253 168.58 37.3209C169.352 32.1407 174.79 31.1754 179.23 31.4657C179.207 31.7613 179.252 32.0581 179.36 32.3342C179.386 32.4244 179.441 32.5036 179.517 32.5599C179.592 32.6163 179.683 32.6467 179.777 32.6467C179.871 32.6467 179.963 32.6163 180.038 32.5599C180.114 32.5036 180.169 32.4244 180.195 32.3342C180.297 31.5478 180.609 30.8033 181.097 30.1783C181.618 29.6794 182.306 29.3925 183.027 29.3736C182.892 29.9641 182.838 30.5703 182.867 31.1754C182.867 31.2621 182.899 31.3457 182.957 31.4108C183.014 31.4758 183.093 31.5181 183.179 31.5299C183.265 31.5416 183.352 31.522 183.425 31.4747C183.497 31.4274 183.551 31.3555 183.575 31.2722C187.286 19.1052 199.254 19.445 204.554 28.0225C203.231 28.52 202.025 29.2871 201.014 30.2751C200.95 30.344 200.913 30.4335 200.909 30.5274C200.905 30.6213 200.935 30.7135 200.994 30.7873C201.052 30.861 201.134 30.9115 201.227 30.9297C201.319 30.9479 201.415 30.9325 201.496 30.8863C205.583 28.8272 209.701 27.5717 214.173 29.2768C216.143 30.0518 217.906 31.2747 219.322 32.8487C220.354 34.0922 221.199 35.4795 221.831 36.9669C205.583 37.0955 189.204 36.7427 172.989 38.0289C172.895 38.0289 172.805 38.0662 172.739 38.1325C172.672 38.1989 172.635 38.289 172.635 38.3829C172.635 38.4767 172.672 38.5668 172.739 38.6332C172.805 38.6996 172.895 38.7369 172.989 38.7369C189.43 38.705 205.84 38.1256 222.282 38.1575C222.958 38.1575 223.151 37.9002 223.119 37.5781C222.521 31.4563 213.915 25.0701 205.196 27.7652C203.459 22.8092 197.861 19.8816 192.776 20.6215C190.641 20.9736 188.637 21.8859 186.97 23.2653C185.302 24.6447 184.03 26.4418 183.284 28.4732C182.482 28.3188 181.65 28.458 180.941 28.8654C180.233 29.2728 179.694 29.9214 179.423 30.6928C175.691 29.888 168.838 31.0149 167.741 35.198C167.031 35.0259 166.292 35.0027 165.572 35.13C164.852 35.2574 164.167 35.5324 163.558 35.9379C163.048 36.2498 162.657 36.7233 162.447 37.283C162.237 37.8428 162.22 38.4567 162.399 39.0271C162.426 39.1203 162.484 39.2017 162.563 39.2581C162.642 39.3146 162.737 39.3428 162.834 39.3383C162.931 39.3338 163.024 39.2969 163.097 39.2333C163.17 39.1698 163.22 39.0835 163.238 38.9882Z" fill="#0050C8"/>
<path d="M11.3024 147.419C16.4838 147.467 21.6628 147.515 26.8442 147.484C26.9079 148.417 26.9728 149.382 27.0684 150.316C27.0625 150.627 27.1561 150.932 27.3356 151.187C27.5152 151.442 27.7712 151.632 28.0666 151.732C29.5145 152.182 35.3059 152.471 37.9444 151.442C39.0524 150.999 38.7138 149.04 38.8129 147.356C49.099 147.12 67.573 147.255 74.7533 146.518C74.8561 146.513 74.9529 146.468 75.0237 146.393C75.0945 146.319 75.1339 146.219 75.1339 146.117C75.1339 146.014 75.0945 145.915 75.0237 145.84C74.9529 145.765 74.8561 145.72 74.7533 145.715C69.4127 145.361 64.072 145.521 58.7301 145.618C53.485 145.715 40.2289 145.908 38.8459 145.94C38.9419 139.344 39.0166 132.748 39.0701 126.152C49.7208 126.988 46.5997 100.057 46.4392 99.7667C45.7312 97.258 41.58 97.4504 41.6768 100.346C42.4815 120.714 39.1032 119.523 39.1032 119.523C39.1032 119.523 39.1669 103.983 39.1669 96.196C39.1669 91.6908 38.781 85.1914 33.1489 84.258C31.7519 84.0844 30.3338 84.2729 29.0307 84.8055C26.1668 86.2215 24.6871 89.6966 25.0411 93.0749C24.8157 96.6149 25.5875 125.251 25.7161 128.147C25.096 128.138 24.4952 127.93 24.0026 127.553C23.51 127.176 23.1518 126.651 22.9808 126.055C22.4664 124.415 23.4635 113.056 22.6268 108.198C22.5782 107.708 22.3574 107.252 22.0039 106.91C21.6504 106.569 21.1871 106.363 20.6964 106.331C18.6054 106.171 18.0579 107.554 17.9623 109.838C17.9293 110.417 17.3511 124.124 18.026 127.76C18.8308 131.943 22.3377 133.778 25.9733 133.584C26.1987 137.767 26.489 141.951 26.8099 146.166C21.6616 146.261 16.5144 146.423 11.3661 146.68C11.3156 146.672 11.2641 146.674 11.2146 146.687C11.1651 146.7 11.1188 146.723 11.0785 146.754C11.0382 146.785 11.0049 146.825 10.9805 146.87C10.9562 146.915 10.9413 146.964 10.9369 147.015C10.9325 147.066 10.9387 147.117 10.955 147.166C10.9713 147.214 10.9974 147.259 11.0317 147.296C11.066 147.334 11.1077 147.365 11.1543 147.386C11.2009 147.407 11.2513 147.418 11.3024 147.419Z" fill="#0050C8"/>
<path d="M98.7257 166.341C97.8253 166.242 97.6318 167.692 98.5003 167.917C99.5623 168.175 100.656 168.368 101.718 168.625C102.665 168.945 103.649 169.139 104.646 169.204C104.733 169.199 104.818 169.171 104.89 169.12C104.961 169.07 105.017 169 105.051 168.92C105.085 168.839 105.095 168.75 105.08 168.664C105.065 168.577 105.027 168.497 104.968 168.432C103.456 167.081 100.721 166.56 98.7257 166.341Z" fill="#092168"/>
<path d="M102.04 175.446C100.203 174.52 97.6314 174.417 95.6041 174.16C94.6707 174.031 94.4784 175.639 95.3787 175.8C97.3741 176.154 99.884 176.798 101.911 176.412C102.01 176.383 102.098 176.325 102.165 176.247C102.232 176.169 102.274 176.073 102.288 175.971C102.302 175.869 102.285 175.765 102.241 175.672C102.197 175.579 102.127 175.5 102.04 175.446Z" fill="#092168"/>
<path d="M226.497 204.919C224.019 205.358 221.639 206.335 219.225 207.01C216.877 207.686 214.56 208.491 212.243 209.231C192.847 215.317 171.752 219.647 153.811 210.228C132.11 198.775 133.691 182.894 117.703 176.378C117.928 175.174 117.858 173.934 117.5 172.762C117.141 171.591 116.505 170.524 115.644 169.652C113.488 167.304 110.271 166.306 107.278 165.47C107.128 165.426 106.966 165.433 106.821 165.491C106.675 165.549 106.553 165.655 106.475 165.791C102.935 168.912 99.8134 174.866 101.615 179.627C101.637 179.724 101.68 179.815 101.741 179.893C101.802 179.971 101.88 180.034 101.969 180.078C106.152 182.427 113.651 183.038 116.706 178.566C125.069 183.831 127.645 190.101 132.183 196.809C136.869 203.647 143.053 209.326 150.266 213.413C170.916 225.027 197.213 219.655 219.541 211.385C222.359 210.436 225.085 209.229 227.683 207.782C227.992 207.581 228.221 207.279 228.331 206.927C228.44 206.576 228.423 206.197 228.282 205.857C228.141 205.516 227.885 205.236 227.559 205.065C227.233 204.893 226.857 204.842 226.497 204.919ZM102.586 179.274C102.275 177.006 102.536 174.697 103.345 172.556C104.155 170.414 105.487 168.51 107.22 167.015C109.438 167.479 111.546 168.364 113.431 169.622C115.393 171.069 117.613 173.74 115.779 176.99C113.172 181.688 106.255 180.272 102.586 179.274Z" fill="#0050C8"/>
<path d="M77.6176 158.747C73.7236 158.192 66.4855 159.937 64.1361 165.182C61.3372 164.7 55.3203 165.89 51.8134 167.596C43.6844 171.478 38.6056 178.837 34.019 182.042C26.349 187.25 16.1514 185.871 7.79583 181.753C7.57847 181.631 7.32187 181.599 7.08114 181.664C6.84041 181.729 6.63476 181.886 6.50837 182.101C6.38198 182.315 6.34492 182.571 6.40517 182.813C6.46542 183.055 6.61816 183.264 6.83059 183.395C13.7159 188.607 23.5618 190.569 31.7675 187.578C41.5356 183.98 46.4951 173.536 56.8001 170.459C59.1388 169.724 61.5917 169.419 64.0394 169.559C64.2479 170.801 64.7799 171.967 65.582 172.939C66.3841 173.91 67.4278 174.653 68.6083 175.093C70.6037 175.93 74.2074 176.959 76.5238 176.155C80.1605 174.644 81.8338 169.399 81.6084 166.085C81.4798 163.573 80.7399 159.192 77.6176 158.747ZM65.5816 168.368C65.53 167.035 65.8299 165.712 66.4513 164.532C67.0726 163.351 67.9935 162.355 69.1216 161.642C70.9002 160.685 72.8653 160.126 74.8812 160.002C72.8551 162.611 71.6032 170.587 74.4623 174.546C73.1707 174.546 71.8843 174.384 70.6332 174.063C67.9334 173.258 65.7362 171.393 65.584 168.368H65.5816ZM76.0069 174.611C74.1378 172.157 73.9785 168.392 74.6558 165.343C74.9449 163.927 75.4594 160.807 77.1338 160.613C79.3546 160.388 80.3835 164.281 80.5122 165.89C80.6431 168.464 79.1941 173.838 76.0093 174.611H76.0069Z" fill="#0050C8"/>
<path d="M131.191 82.9723C132.768 82.4248 135.503 81.4914 135.31 84.0662C135.245 85.1282 136.918 85.1282 136.983 84.0662C137.272 80.0117 133.121 80.4624 130.451 81.4595C121.358 84.8615 102.856 100.999 82.2194 104.626C74.2744 106.001 69.5061 104.485 64.458 100.315C60.4757 96.8826 57.3564 92.5619 55.352 87.7017C53.1961 82.7457 49.5605 71.3882 51.9736 64.4062C54.2534 57.7356 64.1276 51.143 70.443 46.1622C76.9743 41.0457 83.9245 36.4768 90.5526 31.4901C90.9384 31.1998 90.8416 30.9107 90.8098 30.847C90.4499 23.5605 93.2489 19.6063 97.406 18.0404C99.2282 17.4054 101.185 17.2584 103.082 17.6141C104.978 17.9697 106.749 18.8156 108.217 20.0677C108.981 20.8807 109.787 21.6538 110.63 22.384C111.049 22.6731 111.499 22.1905 111.403 21.7728C111.255 20.9891 110.886 20.2639 110.341 19.6818C115.379 18.9685 120.516 19.4984 125.302 21.2253C135.686 24.8384 149.33 38.9347 153.329 58.1593C155.422 68.1067 153.876 71.8166 154.229 76.5673C154.228 76.7104 154.279 76.8492 154.372 76.9576C154.466 77.066 154.596 77.1367 154.737 77.1564C154.879 77.1762 155.023 77.1438 155.143 77.0651C155.263 76.9864 155.35 76.867 155.388 76.7289C156.144 73.9541 156.405 71.0677 156.159 68.2022C155.952 59.6161 153.831 51.1845 149.95 43.5225C145.436 34.4944 136.242 23.5593 126.815 20.0984C121.699 18.1997 114.974 16.9773 109.73 19.1013C108.35 17.9508 106.768 17.0669 105.064 16.4946C102.271 15.5727 99.2361 15.71 96.5375 16.8805C91.8069 19.0045 87.8503 25.6007 90.1018 30.716C79.7095 37.6414 67.7373 45.9085 58.2477 54.0127C54.5472 57.1987 51.1677 61.1246 49.8815 65.9827C48.4985 71.131 50.6863 78.5957 51.3294 81.1055C53.936 90.9833 59.7274 101.344 69.6064 105.43C75.4615 107.876 82.1864 106.621 88.0746 104.98C106.483 99.7885 124.331 85.4314 131.191 82.9723Z" fill="#092168"/>
<path d="M140.908 84.7089C141.003 84.2581 140.426 83.8404 140.072 84.2263C139.246 85.0959 138.316 86.8329 135.631 86.8329C135.533 86.8344 135.438 86.8718 135.364 86.938C135.291 87.0042 135.244 87.0948 135.232 87.1929C135.221 87.291 135.245 87.3901 135.301 87.4717C135.357 87.5532 135.44 87.6118 135.536 87.6365C137.563 87.9905 140.448 86.958 140.908 84.7089Z" fill="#092168"/>
<path d="M73.7565 65.5951C73.8074 65.6822 73.883 65.7523 73.9737 65.7964C74.0645 65.8405 74.1662 65.8567 74.2662 65.8429C74.3661 65.8291 74.4597 65.786 74.5351 65.719C74.6106 65.652 74.6644 65.5641 74.6899 65.4665C75.3011 63.0204 73.2739 60.3182 71.3434 59.0638C69.3161 57.7446 65.9059 57.1971 63.8787 58.8054C63.8403 58.8475 63.8142 58.8994 63.8034 58.9553C63.7927 59.0113 63.7975 59.0691 63.8176 59.1225C63.8376 59.1759 63.872 59.2226 63.9169 59.2577C63.9618 59.2927 64.0156 59.3147 64.0722 59.3211C66.5172 59.1924 68.5763 58.8054 70.7003 60.4149C72.5659 61.766 72.8538 63.6328 73.7565 65.5951Z" fill="#092168"/>
<path d="M101.272 107.232C102.047 106.796 102.709 106.185 103.207 105.447C103.704 104.71 104.022 103.866 104.136 102.984C105.081 103.54 106.156 103.836 107.253 103.841C108.349 103.847 109.427 103.563 110.378 103.017C111.329 102.471 112.119 101.684 112.667 100.734C113.215 99.7844 113.502 98.7068 113.499 97.6104C114.464 98.151 115.554 98.4308 116.66 98.4225C117.767 98.4141 118.852 98.1177 119.809 97.5626C120.766 97.0075 121.562 96.2127 122.119 95.2565C122.676 94.3003 122.974 93.2156 122.984 92.1092C123.9 92.5516 124.917 92.7417 125.931 92.6598C126.944 92.5778 127.918 92.2269 128.751 91.6432C129.584 91.0595 130.246 90.2642 130.669 89.3392C131.091 88.4143 131.26 87.3933 131.157 86.3815C131.06 85.7054 129.966 85.7384 129.837 86.3815C129.778 87.179 129.542 87.9534 129.147 88.6488C128.752 89.3442 128.207 89.9433 127.553 90.4029C126.785 90.8364 125.905 91.0285 125.027 90.9539C124.149 90.8794 123.313 90.5418 122.63 89.9852C122.497 89.8611 122.328 89.7827 122.147 89.7614C121.967 89.7402 121.784 89.7771 121.626 89.867C121.468 89.9568 121.343 90.0948 121.269 90.2609C121.194 90.4269 121.175 90.6123 121.214 90.79C121.432 91.8167 121.311 92.8866 120.868 93.8382C120.425 94.7899 119.685 95.5716 118.758 96.0656C117.832 96.5595 116.77 96.7388 115.733 96.5764C114.696 96.4141 113.74 95.9188 113.009 95.1654C112.877 95.0404 112.708 94.9613 112.527 94.9396C112.346 94.9178 112.162 94.9547 112.004 95.0448C111.846 95.1348 111.72 95.2733 111.646 95.4398C111.572 95.6064 111.554 95.7923 111.593 95.9702C111.911 96.9965 111.865 98.1007 111.465 99.0975C111.064 100.094 110.333 100.923 109.394 101.444C108.455 101.966 107.365 102.148 106.307 101.961C105.249 101.774 104.288 101.228 103.585 100.416C102.909 99.7084 101.878 100.609 102.297 101.414C103.391 103.569 101.364 105.886 99.3685 106.497C96.6663 107.334 93.8992 106.047 91.3575 105.306C90.9717 105.211 90.7132 105.757 91.0672 105.951C93.996 107.614 98.1472 109.1 101.272 107.232Z" fill="#092168"/>
<path d="M107.29 105.271C107.183 105.271 107.081 105.314 107.006 105.389C106.93 105.465 106.888 105.567 106.888 105.674C106.888 105.78 106.93 105.883 107.006 105.958C107.081 106.034 107.183 106.076 107.29 106.076C122.15 106.511 137.824 98.6762 147.799 86.96C149.258 85.468 150.416 83.7093 151.211 81.7798C151.371 81.2972 150.76 81.0388 150.406 81.3291C148.123 83.2088 147.338 85.6868 142.008 90.5637C132.411 99.2183 120.184 104.398 107.29 105.271Z" fill="#092168"/>
<path d="M67.2569 61.3161C65.2663 62.0666 65.52 65.0815 65.6155 66.7866C65.6804 68.2026 66.0344 70.6475 67.9968 70.3573C70.0264 70.0965 70.7108 67.3978 70.378 65.3706C70.0889 63.9864 69.4494 60.4901 67.2569 61.3161Z" fill="#092168"/>
<path d="M56.1573 71.3905C55.6875 71.1257 55.1371 71.0416 54.6097 71.1542C54.0822 71.2668 53.6141 71.5682 53.2934 72.0018C53.095 72.3994 52.9837 72.8347 52.967 73.2787C52.9504 73.7227 53.0286 74.1652 53.1966 74.5765C53.9365 76.5707 56.2528 77.6009 57.9591 76.0244C59.0848 74.9305 58.4453 72.895 56.1573 71.3905Z" fill="#092168"/>
<path d="M99.9485 47.804C102.982 49.8749 106.457 50.754 109.731 49.0584C112.563 47.6105 112.465 43.202 112.241 41.9477C111.69 39.0455 110.142 36.4272 107.864 34.5467C102.122 29.2639 95.3229 31.4705 94.1571 35.9309C93.8672 37.1202 93.8016 38.3531 93.9635 39.5665C95.1601 36.5409 99.7208 36.5162 101.525 40.5966C102.233 42.2049 102.844 44.6499 101.944 46.3231C101.783 46.7319 101.511 47.0874 101.158 47.3492C100.805 47.6109 100.386 47.7685 99.9485 47.804Z" fill="#092168"/>
<path d="M228.17 99.6086C227.76 98.7047 227.109 98.7719 226.723 99.061C226.337 99.3501 224.889 101.893 224.632 102.215C223.827 103.18 225.724 104.435 224.921 105.368C224.373 105.979 222.636 105.722 222.508 106.751C222.379 107.684 223.279 108.361 223.408 109.229C223.537 110.066 222.668 110.388 221.96 110.516C221.349 110.613 220.19 110.485 219.836 111.064C219.514 111.578 219.771 112.222 219.868 112.769C220.157 114.12 220.865 116.695 218.677 116.791C217.615 116.822 216.425 116.051 215.396 116.468C213.902 117.05 215.489 120.959 214.044 121.939C213.626 122.228 209.217 121.617 208.638 121.939C208.059 122.261 207.126 126.895 206.644 127.152C205.774 127.635 202.01 124.995 201.045 124.866C200.079 124.77 196.604 130.691 195.896 130.401C195.35 130.175 193.418 127.055 192.84 126.251C192.486 125.768 191.972 125.189 191.295 125.349C190.651 125.511 185.503 128.857 185.182 128.824C184.023 128.664 183.509 124.191 183.251 123.226C182.929 122.099 182.897 120.588 181.385 120.426C180.291 120.331 176.59 121.842 175.787 121.682C174.79 121.488 177.138 114.023 174.66 113.638C173.888 113.509 169.641 113.187 169.384 112.318C169.191 111.578 172.601 106.268 170.992 105.336C169.867 104.66 165.715 102.376 165.78 101.217C165.876 99.2864 167.904 94.9428 167.871 94.5888C167.775 93.6236 160.889 91.9185 160.47 91.2754C160.051 90.6323 161.597 85.6114 161.178 83.7458C161.018 83.006 153.585 82.7487 152.588 83.0378C152.234 82.9092 151.88 83.4555 152.201 83.714C165.039 94.688 163.366 113.766 174.596 125.768C184.744 136.645 203.475 137.2 216.586 124.545C222.709 118.471 226.647 110.539 227.783 101.99C228.257 104.296 228.6 106.627 228.812 108.972C229.415 117.909 227.639 126.847 223.664 134.874C217.304 147.678 203.979 157.165 192.293 160.716C189.622 161.52 186.823 161.778 184.151 162.486C183.668 162.616 183.604 163.451 184.151 163.548C192.466 164.879 225.429 152.739 230.099 119.789C230.969 113.219 230.923 105.667 228.17 99.6086Z" fill="#092168"/>
<path d="M151.913 158.104C147.284 157.732 143.129 157.299 138.946 155.08C126.084 148.236 121.573 132.679 124.917 118.206C126.37 112.683 128.511 107.365 131.289 102.375C131.324 102.307 131.333 102.228 131.313 102.154C131.293 102.08 131.246 102.017 131.181 101.976C131.116 101.935 131.038 101.921 130.963 101.935C130.887 101.949 130.82 101.991 130.775 102.053C127.995 105.829 125.854 110.036 124.436 114.505C123.593 115.676 122.49 116.634 121.214 117.304C115.412 120.372 109.46 116.572 106.478 120.941C105.901 121.755 105.58 122.723 105.557 123.72C105.534 124.718 105.81 125.699 106.349 126.539C106.736 127.118 107.861 126.764 107.54 126.025C107.234 125.41 107.091 124.727 107.124 124.041C107.158 123.356 107.368 122.69 107.733 122.108C108.098 121.527 108.606 121.049 109.209 120.721C109.812 120.392 110.489 120.224 111.176 120.233C114.647 120.016 119.654 121.149 123.66 117.144C119.992 131.658 123.467 148.066 137.207 156.045C141.455 158.523 147.119 160.42 152.075 159.391C152.846 159.23 152.621 158.161 151.913 158.104Z" fill="#092168"/>
<path d="M129.742 124.96C130.804 124.536 132.027 124.574 133.121 124.252C135.049 123.617 136.757 122.445 138.044 120.874C141.23 117.11 142.034 111.736 142.034 106.941C142.034 106.556 141.39 106.427 141.326 106.845C140.168 112.476 139.621 119.812 133.475 122.421C131.577 123.225 128.777 122.775 127.491 124.673C126.172 126.636 127.587 128.952 129.228 130.175C129.711 130.529 130.29 129.854 130.033 129.371C129.325 128.049 127.518 125.85 129.742 124.96Z" fill="#092168"/>
<path d="M134.989 131.428C135.071 131.38 135.136 131.309 135.178 131.224C135.219 131.139 135.233 131.043 135.22 130.95C135.206 130.856 135.164 130.769 135.1 130.699C135.036 130.629 134.952 130.581 134.86 130.559C133.315 130.262 132.334 129.72 132.221 128.146C132.19 127.792 132.318 127.438 132.093 127.148C131.77 126.824 131.083 127.098 130.999 128.371C130.945 128.873 131.022 129.38 131.221 129.844C131.42 130.308 131.735 130.713 132.136 131.02C132.536 131.327 133.009 131.525 133.509 131.597C134.008 131.668 134.518 131.61 134.989 131.428Z" fill="#092168"/>
<path d="M139.139 131.848C139.493 131.693 139.717 131.108 139.267 130.915C138.447 130.692 137.666 130.344 136.95 129.885C136.261 129.245 135.826 128.376 135.728 127.44C135.664 126.958 134.956 126.764 134.827 127.312C134.687 127.913 134.699 128.54 134.862 129.135C135.025 129.73 135.334 130.276 135.761 130.722C136.153 131.219 136.681 131.59 137.282 131.79C137.882 131.99 138.528 132.01 139.139 131.848Z" fill="#092168"/>
<path d="M151.43 111.256C151.392 111.139 151.315 111.039 151.211 110.973C151.107 110.907 150.984 110.879 150.862 110.895C150.74 110.91 150.627 110.967 150.543 111.056C150.459 111.146 150.408 111.262 150.4 111.384C150.746 114.885 149.87 118.398 147.922 121.327C145.798 124.288 142.709 125.702 139.33 126.732C139.247 126.757 139.175 126.81 139.128 126.882C139.08 126.955 139.061 127.042 139.073 127.128C139.084 127.214 139.127 127.293 139.192 127.35C139.257 127.408 139.34 127.44 139.427 127.44C147.247 127.472 153.552 118.583 151.43 111.256Z" fill="#092168"/>
<path d="M112.078 127.087C111.534 126.696 110.888 126.475 110.534 125.896C110.37 125.561 110.282 125.194 110.277 124.822C110.271 124.449 110.348 124.08 110.502 123.74C110.663 123.258 110.019 123 109.697 123.289C109.254 123.704 108.957 124.252 108.853 124.85C108.749 125.448 108.842 126.064 109.119 126.604C109.345 127.134 109.747 127.57 110.256 127.84C110.766 128.109 111.352 128.195 111.918 128.084C112.016 128.05 112.103 127.99 112.17 127.911C112.237 127.832 112.281 127.736 112.297 127.633C112.314 127.531 112.302 127.426 112.263 127.33C112.225 127.233 112.161 127.149 112.078 127.087Z" fill="#092168"/>
<path d="M114.074 126.25C113.68 125.629 113.52 124.887 113.623 124.158C113.646 124.068 113.636 123.972 113.594 123.889C113.552 123.805 113.482 123.74 113.395 123.704C113.309 123.669 113.212 123.666 113.124 123.697C113.036 123.727 112.962 123.788 112.915 123.869C111.499 126.176 113.519 128.693 115.393 128.341C115.876 128.245 115.844 127.633 115.522 127.376C114.989 127.07 114.502 126.691 114.074 126.25Z" fill="#092168"/>
<path d="M120.67 123.997C119.134 124.046 117.601 123.839 116.133 123.386C115.585 123.16 115.103 123.9 115.65 124.191C116.424 124.676 117.293 124.987 118.199 125.104C119.104 125.221 120.024 125.139 120.895 124.866C121.378 124.64 121.088 124.035 120.67 123.997Z" fill="#092168"/>
<path d="M186.92 150.607C187.177 150.189 186.534 149.641 186.212 150.06C177.891 160.195 176.382 177.744 181.964 189.09C182.383 189.895 183.766 189.347 183.445 188.479C178.697 175.184 179.14 164.093 186.92 150.607Z" fill="#092168"/>
<path d="M182.126 190.281C180.795 190.651 179.485 191.091 178.201 191.6C178.008 190.088 177.493 188.351 175.885 187.803C175.452 187.649 174.979 187.648 174.546 187.8C174.113 187.952 173.745 188.249 173.503 188.64C173.136 188.045 172.597 187.574 171.959 187.289C171.683 187.176 171.386 187.12 171.088 187.123C170.789 187.127 170.495 187.191 170.222 187.311C169.948 187.432 169.702 187.605 169.497 187.823C169.293 188.04 169.134 188.296 169.03 188.576C168.559 187.856 167.872 187.304 167.068 187C166.649 186.9 166.209 186.948 165.822 187.135C165.435 187.323 165.125 187.638 164.944 188.028C164.77 188.457 164.694 188.92 164.722 189.382C164.75 189.844 164.88 190.294 165.104 190.699C162.272 186.838 159.537 183.202 157.832 178.663C156.087 174.117 155.235 169.278 155.322 164.41C155.582 153.263 162.074 146.002 159.151 134.388C157.88 129.346 155.055 124.832 151.075 121.486C150.818 121.261 150.432 121.615 150.689 121.872C154.091 125.505 156.457 129.982 157.543 134.839C160.106 146.035 153.767 153.416 153.617 164.929C153.53 177.505 159.666 188.315 165.299 191.957C167.891 193.32 170.805 193.954 173.73 193.79C176.147 193.692 180.897 192.934 182.674 191.312C183.282 190.86 182.706 190.191 182.126 190.281ZM175.948 189.605C176.415 190.303 176.682 191.115 176.72 191.954C176.104 192.082 175.481 192.179 174.855 192.243C174.813 191.419 174.581 190.616 174.178 189.895C174.115 189.798 174.082 189.67 174.018 189.573C174.243 188.705 175.532 189.121 175.948 189.605ZM165.813 188.576C166.744 187.153 168.379 189.427 168.966 191.021C169.095 191.375 169.159 191.697 169.288 192.018C168.193 191.866 167.108 191.651 166.038 191.375C165.78 190.603 165.346 189.292 165.818 188.576H165.813ZM170.478 192.18C170.545 191.311 170.306 190.445 169.803 189.734C169.835 188.93 170.446 188.093 171.379 188.511C172.559 189.026 173.304 192.193 173.342 192.308C172.385 192.362 171.426 192.319 170.478 192.18Z" fill="#092168"/>
<path d="M146.218 161.895C142.076 166.538 141.222 176.33 143.45 180.588C141.259 181.026 139.019 181.167 136.79 181.007C136.828 180.44 136.734 179.873 136.517 179.348C136.299 178.823 135.963 178.356 135.536 177.983C135.238 177.73 134.878 177.56 134.494 177.492C134.109 177.424 133.713 177.46 133.347 177.596C133.111 177.107 132.796 176.661 132.414 176.276C132.296 176.126 132.147 176.002 131.977 175.913C131.808 175.823 131.621 175.771 131.43 175.759C131.238 175.747 131.047 175.775 130.867 175.842C130.687 175.909 130.524 176.013 130.387 176.148C128.739 172.954 127.879 169.413 127.877 165.819C127.825 161.057 128.929 156.353 131.095 152.112C131.146 152.011 131.156 151.893 131.123 151.784C131.09 151.676 131.018 151.583 130.919 151.526C130.821 151.469 130.705 151.451 130.594 151.476C130.483 151.501 130.386 151.568 130.322 151.662C126.165 157.549 125.173 165.822 127.266 172.995C128.096 175.438 129.277 177.746 130.773 179.848C133.085 183.21 141.15 183.66 144.191 181.586C144.322 181.504 144.422 181.38 144.474 181.234C144.526 181.088 144.529 180.929 144.48 180.782C143.07 172.499 143.685 170.181 146.893 162.374C146.927 162.285 146.931 162.188 146.903 162.097C146.876 162.006 146.819 161.927 146.742 161.872C146.664 161.817 146.571 161.79 146.476 161.794C146.381 161.798 146.29 161.833 146.218 161.895ZM134.923 179.398C135.112 179.835 135.263 180.287 135.374 180.75C134.932 180.628 134.501 180.466 134.088 180.267C134.197 179.693 134.094 179.098 133.797 178.594C134.031 178.642 134.253 178.739 134.447 178.878C134.641 179.017 134.803 179.196 134.923 179.402V179.398ZM132.221 178.819C132.281 179.013 132.35 179.205 132.414 179.398C132.157 179.237 131.899 179.108 131.642 178.948C131.413 178.299 131.145 177.665 130.838 177.049C131.223 176.603 132.151 178.6 132.221 178.824V178.819Z" fill="#092168"/>
<path d="M76.2988 169.429C76.0559 169.799 75.9638 170.248 76.0416 170.684C76.0728 170.946 76.204 171.186 76.4078 171.354C76.6116 171.522 76.8723 171.604 77.1355 171.585C78.0688 171.327 77.9721 170.073 77.8116 169.654C77.7698 169.497 77.6829 169.355 77.5617 169.247C77.4404 169.139 77.2901 169.068 77.1293 169.044C76.9685 169.02 76.8041 169.044 76.6566 169.112C76.509 169.181 76.3846 169.291 76.2988 169.429Z" fill="#092168"/>
<path d="M77.231 163.059C77.0503 163.148 76.8977 163.285 76.7899 163.456C76.6821 163.626 76.6232 163.823 76.6198 164.024C76.5879 165.311 77.7455 165.376 78.1644 164.989C78.7933 164.424 78.5774 162.61 77.231 163.059Z" fill="#092168"/>
</svg>
